<svg width="59" height="134" xmlns="http://www.w3.org/2000/svg" xmlns:xlink="http://www.w3.org/1999/xlink" overflow="hidden"><defs><clipPath id="clip0"><rect x="270" y="90" width="59" height="134"/></clipPath></defs><g clip-path="url(#clip0)" transform="translate(-270 -90)"><path d="M309.971 202.725 309.938 202.533 309.938 202.405 309.938 202.277 309.938 202.117 309.938 165.121C306.069 164.384 301.935 164 297.701 164 295.088 164 292.542 164.16 290.061 164.448L290.061 202.501 290.061 202.597 290.028 202.789C289.995 203.078 289.698 207.882 292.145 210.957 293.732 212.943 296.378 214 300.016 214 303.654 213.968 306.333 212.943 307.888 210.957 310.302 207.85 310.004 203.078 309.971 202.725ZM294.162 177.325C292.476 177.325 291.087 176.012 291.087 174.346 291.087 172.712 292.443 171.367 294.162 171.367 295.849 171.367 297.238 172.68 297.238 174.346 297.205 176.012 295.816 177.325 294.162 177.325ZM300.777 184.564C299.851 184.564 299.123 183.859 299.123 182.962 299.123 182.065 299.851 181.361 300.777 181.361 301.703 181.361 302.431 182.065 302.431 182.962 302.431 183.859 301.703 184.564 300.777 184.564ZM304.051 173.994C301.802 173.994 299.983 172.232 299.983 170.054 299.983 167.876 301.802 166.114 304.051 166.114 306.3 166.114 308.119 167.876 308.119 170.054 308.119 172.232 306.3 173.994 304.051 173.994Z" fill="#3C8DBC" fill-rule="evenodd"/><path d="M329 97.1936 329 91 271 91 271 97.1936 281.93 97.1936 281.93 202.583C281.832 203.985 281.569 210.504 284.852 216.046 285.18 216.6 285.541 217.122 285.935 217.643 289.086 221.783 293.78 223.935 299.852 224 299.885 224 299.885 224 299.918 224 299.951 224 299.984 224 299.984 224 300.016 224 300.049 224 300.049 224 300.082 224 300.082 224 300.115 224 306.187 223.935 310.881 221.783 314.032 217.643 314.754 216.698 315.345 215.688 315.838 214.677 318.365 209.461 318.135 203.854 318.037 202.55L318.037 97.1936 329 97.1936ZM309.404 212.884C307.435 215.427 304.284 216.731 300.016 216.763 295.749 216.731 292.598 215.427 290.629 212.884 287.642 209.005 288.134 203.235 288.134 203.202L288.167 202.974 288.167 97.1936 311.866 97.1936 311.866 202.779 311.866 202.974 311.899 203.202C311.866 203.235 312.358 209.005 309.404 212.884Z" fill="#3C8DBC" fill-rule="evenodd"/><path d="M308 154C308 156.209 306.209 158 304 158 301.791 158 300 156.209 300 154 300 151.791 301.791 150 304 150 306.209 150 308 151.791 308 154Z" fill="#3C8DBC" fill-rule="evenodd"/><path d="M297 144C297 145.657 295.657 147 294 147 292.343 147 291 145.657 291 144 291 142.343 292.343 141 294 141 295.657 141 297 142.343 297 144Z" fill="#3C8DBC" fill-rule="evenodd"/><path d="M302 138.5C302 139.328 301.328 140 300.5 140 299.672 140 299 139.328 299 138.5 299 137.672 299.672 137 300.5 137 301.328 137 302 137.672 302 138.5Z" fill="#3C8DBC" fill-rule="evenodd"/></g></svg>