<svg width="126" height="126" xmlns="http://www.w3.org/2000/svg" xmlns:xlink="http://www.w3.org/1999/xlink" overflow="hidden"><defs><clipPath id="clip0"><rect x="240" y="563" width="126" height="126"/></clipPath></defs><g clip-path="url(#clip0)" transform="translate(-240 -563)"><path d="M293.312 564 312.688 564C315.909 564 318.5 566.591 318.5 569.812L318.5 610.5 339.74 610.5C344.051 610.5 346.206 615.707 343.155 618.759L306.318 655.62C304.502 657.436 301.523 657.436 299.706 655.62L262.821 618.759C259.77 615.707 261.925 610.5 266.236 610.5L287.5 610.5 287.5 569.812C287.5 566.591 290.091 564 293.312 564ZM365 655.062 365 682.188C365 685.409 362.409 688 359.188 688L246.812 688C243.591 688 241 685.409 241 682.188L241 655.062C241 651.841 243.591 649.25 246.812 649.25L282.341 649.25 294.209 661.117C299.077 665.985 306.923 665.985 311.791 661.117L323.659 649.25 359.188 649.25C362.409 649.25 365 651.841 365 655.062ZM334.969 676.375C334.969 673.711 332.789 671.531 330.125 671.531 327.461 671.531 325.281 673.711 325.281 676.375 325.281 679.039 327.461 681.219 330.125 681.219 332.789 681.219 334.969 679.039 334.969 676.375ZM350.469 676.375C350.469 673.711 348.289 671.531 345.625 671.531 342.961 671.531 340.781 673.711 340.781 676.375 340.781 679.039 342.961 681.219 345.625 681.219 348.289 681.219 350.469 679.039 350.469 676.375Z" fill="#3C8DBC" fill-rule="evenodd"/></g></svg>