<svg width="242" height="241" xmlns="http://www.w3.org/2000/svg" xmlns:xlink="http://www.w3.org/1999/xlink" overflow="hidden"><defs><clipPath id="clip0"><rect x="177" y="557" width="242" height="241"/></clipPath><linearGradient x1="298" y1="557" x2="298" y2="797" gradientUnits="userSpaceOnUse" spreadMethod="reflect" id="fill1"><stop offset="0" stop-color="#F5F9FD"/><stop offset="0.74" stop-color="#B6D2EB"/><stop offset="0.83" stop-color="#B6D2EB"/><stop offset="1" stop-color="#CBDFF0"/></linearGradient></defs><g clip-path="url(#clip0)" transform="translate(-177 -557)"><path d="M178 677C178 610.726 231.726 557 298 557 364.274 557 418 610.726 418 677 418 743.274 364.274 797 298 797 231.726 797 178 743.274 178 677Z" fill="url(#fill1)" fill-rule="evenodd"/><path d="M284.766 596 310.234 596C314.469 596 317.875 599.406 317.875 603.641L317.875 657.125 345.795 657.125C351.462 657.125 354.295 663.97 350.284 667.981L301.862 716.435C299.474 718.823 295.558 718.823 293.17 716.435L244.684 667.981C240.673 663.97 243.506 657.125 249.173 657.125L277.125 657.125 277.125 603.641C277.125 599.406 280.531 596 284.766 596ZM379 715.703 379 751.359C379 755.594 375.594 759 371.359 759L223.641 759C219.406 759 216 755.594 216 751.359L216 715.703C216 711.469 219.406 708.062 223.641 708.062L270.344 708.062 285.944 723.662C292.343 730.061 302.657 730.061 309.056 723.662L324.656 708.062 371.359 708.062C375.594 708.062 379 711.469 379 715.703ZM339.523 743.719C339.523 740.217 336.658 737.352 333.156 737.352 329.654 737.352 326.789 740.217 326.789 743.719 326.789 747.221 329.654 750.086 333.156 750.086 336.658 750.086 339.523 747.221 339.523 743.719ZM359.898 743.719C359.898 740.217 357.033 737.352 353.531 737.352 350.029 737.352 347.164 740.217 347.164 743.719 347.164 747.221 350.029 750.086 353.531 750.086 357.033 750.086 359.898 747.221 359.898 743.719Z" fill-rule="evenodd"/></g></svg>