<svg width="242" height="241" xmlns="http://www.w3.org/2000/svg" xmlns:xlink="http://www.w3.org/1999/xlink" overflow="hidden"><defs><clipPath id="clip0"><rect x="861" y="541" width="242" height="241"/></clipPath><linearGradient x1="982" y1="541" x2="982" y2="781" gradientUnits="userSpaceOnUse" spreadMethod="reflect" id="fill1"><stop offset="0" stop-color="#F5F9FD"/><stop offset="0.74" stop-color="#B6D2EB"/><stop offset="0.83" stop-color="#B6D2EB"/><stop offset="1" stop-color="#CBDFF0"/></linearGradient></defs><g clip-path="url(#clip0)" transform="translate(-861 -541)"><path d="M862 661C862 594.726 915.726 541 982 541 1048.27 541 1102 594.726 1102 661 1102 727.274 1048.27 781 982 781 915.726 781 862 727.274 862 661Z" fill="url(#fill1)" fill-rule="evenodd"/><path d="M982.838 701.382C988.747 701.478 993.49 703.332 997.068 706.943 1000.65 710.553 1002.48 715.339 1002.58 721.301 1002.48 727.254 1000.65 732.004 997.068 735.55 993.49 739.096 988.747 740.912 982.838 741 976.929 740.912 972.186 739.096 968.608 735.55 965.029 732.004 963.192 727.254 963.096 721.301 963.192 715.339 965.029 710.553 968.608 706.943 972.186 703.332 976.929 701.478 982.838 701.382ZM984.377 582C1001.41 582.078 1014.59 585.794 1023.93 593.149 1030.94 598.665 1035.36 605.964 1037.18 615.047L1038 623.316 1038 625.91 1036.73 636.729C1035.78 640.412 1034.35 643.777 1032.43 646.824 1028.61 652.916 1022.76 659.065 1014.87 665.268 1009.47 669.598 1005.52 673.623 1003.02 677.343 1000.52 681.063 998.985 685.753 998.409 691.412L966.389 691.412C966.585 682.693 967.837 675.704 970.144 670.447 972.452 665.19 975.951 660.14 980.642 655.298 986.51 649.122 990.703 643.971 993.22 639.845 995.737 635.718 996.964 631.786 996.9 628.047 996.918 622.499 995.673 618.308 993.165 615.474 990.657 612.64 986.776 611.218 981.521 611.209 976.665 611.186 972.866 612.949 970.125 616.498 967.383 620.048 965.836 625.522 965.483 632.921L926 632.921C926.607 616.847 932.028 604.374 942.263 595.501 952.498 586.629 966.536 582.128 984.377 582Z" fill-rule="evenodd"/></g></svg>