<svg width="188" height="113" xmlns="http://www.w3.org/2000/svg" xmlns:xlink="http://www.w3.org/1999/xlink" overflow="hidden"><defs><clipPath id="clip0"><rect x="614" y="581" width="188" height="113"/></clipPath></defs><g clip-path="url(#clip0)" transform="translate(-614 -581)"><path d="M0 0 52.0522 12.5227" stroke="#3C8DBC" stroke-width="3.33333" stroke-miterlimit="8" fill="none" fill-rule="evenodd" transform="matrix(1 0 0 -1 643.5 611.023)"/><path d="M643.5 664.5 695.047 673.327" stroke="#3C8DBC" stroke-width="3.33333" stroke-miterlimit="8" fill="none" fill-rule="evenodd"/><path d="M0 0 51.5465 66.2257" stroke="#3C8DBC" stroke-width="3.33333" stroke-miterlimit="8" fill="none" fill-rule="evenodd" transform="matrix(1 0 0 -1 643.5 664.726)"/><path d="M643.5 611.5 695.552 674.03" stroke="#3C8DBC" stroke-width="3.33333" stroke-miterlimit="8" fill="none" fill-rule="evenodd"/><path d="M643.5 611.5 690.713 625.292" stroke="#3C8DBC" stroke-width="3.33333" stroke-miterlimit="8" fill="none" fill-rule="evenodd"/><path d="M0 0 42.95 18.3033" stroke="#3C8DBC" stroke-width="3.33333" stroke-miterlimit="8" fill="none" fill-rule="evenodd" transform="matrix(1 0 0 -1 643.5 664.803)"/><path d="M773.734 636.928 720.5 598.5" stroke="#3C8DBC" stroke-width="3.33333" stroke-miterlimit="8" fill="none" fill-rule="evenodd"/><path d="M0 0 53.2343 36.6247" stroke="#3C8DBC" stroke-width="3.33333" stroke-miterlimit="8" fill="none" fill-rule="evenodd" transform="matrix(-1 0 0 1 773.734 636.5)"/><path d="M727.5 623.5 773.894 637.351" stroke="#3C8DBC" stroke-width="3.33333" stroke-miterlimit="8" fill="none" fill-rule="evenodd"/><path d="M0 0 46.8618 11.7668" stroke="#3C8DBC" stroke-width="3.33333" stroke-miterlimit="8" fill="none" fill-rule="evenodd" transform="matrix(1 0 0 -1 727.5 648.267)"/><path d="M694 598C694 590.82 699.82 585 707 585 714.18 585 720 590.82 720 598 720 605.18 714.18 611 707 611 699.82 611 694 605.18 694 598Z" stroke="#3C8DBC" stroke-width="5.66667" stroke-miterlimit="8" fill="none" fill-rule="evenodd"/><path d="M694 624C694 616.82 699.82 611 707 611 714.18 611 720 616.82 720 624 720 631.18 714.18 637 707 637 699.82 637 694 631.18 694 624Z" stroke="#3C8DBC" stroke-width="5.66667" stroke-miterlimit="8" fill="none" fill-rule="evenodd"/><path d="M694 651C694 643.82 699.82 638 707 638 714.18 638 720 643.82 720 651 720 658.18 714.18 664 707 664 699.82 664 694 658.18 694 651Z" stroke="#3C8DBC" stroke-width="5.66667" stroke-miterlimit="8" fill="none" fill-rule="evenodd"/><path d="M694 677C694 669.82 699.82 664 707 664 714.18 664 720 669.82 720 677 720 684.18 714.18 690 707 690 699.82 690 694 684.18 694 677Z" stroke="#3C8DBC" stroke-width="5.66667" stroke-miterlimit="8" fill="none" fill-rule="evenodd"/><path d="M773 636.5C773 629.044 778.82 623 786 623 793.18 623 799 629.044 799 636.5 799 643.956 793.18 650 786 650 778.82 650 773 643.956 773 636.5Z" stroke="#3C8DBC" stroke-width="5.66667" stroke-miterlimit="8" fill="none" fill-rule="evenodd"/><path d="M617 610.5C617 603.044 622.82 597 630 597 637.18 597 643 603.044 643 610.5 643 617.956 637.18 624 630 624 622.82 624 617 617.956 617 610.5Z" stroke="#3C8DBC" stroke-width="5.66667" stroke-miterlimit="8" fill="none" fill-rule="evenodd"/><path d="M617 638C617 630.82 622.82 625 630 625 637.18 625 643 630.82 643 638 643 645.18 637.18 651 630 651 622.82 651 617 645.18 617 638Z" stroke="#3C8DBC" stroke-width="5.66667" stroke-miterlimit="8" fill="none" fill-rule="evenodd"/><path d="M617 664C617 656.82 622.82 651 630 651 637.18 651 643 656.82 643 664 643 671.18 637.18 677 630 677 622.82 677 617 671.18 617 664Z" stroke="#3C8DBC" stroke-width="5.66667" stroke-miterlimit="8" fill="none" fill-rule="evenodd"/></g></svg>