<svg width="178" height="158" xmlns="http://www.w3.org/2000/svg" xmlns:xlink="http://www.w3.org/1999/xlink" overflow="hidden"><defs><clipPath id="clip0"><rect x="603" y="305" width="178" height="158"/></clipPath></defs><g clip-path="url(#clip0)" transform="translate(-603 -305)"><path d="M712.973 420.5 712.941 420.304 712.941 420.173 712.941 420.042 712.941 419.879 712.941 382.144C709.265 381.392 705.338 381 701.316 381 698.834 381 696.415 381.163 694.058 381.457L694.058 420.271 694.058 420.369 694.027 420.565C693.995 420.859 693.713 425.76 696.038 428.896 697.546 430.922 700.059 432 703.516 432 706.972 431.967 709.517 430.922 710.993 428.896 713.287 425.727 713.004 420.859 712.973 420.5ZM697.954 394.591C696.352 394.591 695.032 393.252 695.032 391.553 695.032 389.887 696.32 388.514 697.954 388.514 699.557 388.514 700.876 389.854 700.876 391.553 700.845 393.252 699.525 394.591 697.954 394.591ZM704.238 401.975C703.358 401.975 702.667 401.256 702.667 400.341 702.667 399.427 703.358 398.708 704.238 398.708 705.118 398.708 705.809 399.427 705.809 400.341 705.809 401.256 705.118 401.975 704.238 401.975ZM707.349 391.193C705.212 391.193 703.484 389.397 703.484 387.175 703.484 384.953 705.212 383.156 707.349 383.156 709.485 383.156 711.213 384.953 711.213 387.175 711.213 389.397 709.485 391.193 707.349 391.193Z" fill="#FFFFFF" fill-rule="evenodd"/><path d="M732 314.194 732 308 675 308 675 314.194 685.742 314.194 685.742 419.583C685.645 420.985 685.387 427.504 688.613 433.046 688.935 433.6 689.29 434.122 689.677 434.643 692.774 438.783 697.387 440.935 703.355 441 703.387 441 703.387 441 703.419 441 703.452 441 703.484 441 703.484 441 703.516 441 703.548 441 703.548 441 703.581 441 703.581 441 703.613 441 709.581 440.935 714.194 438.783 717.29 434.643 718 433.698 718.581 432.688 719.065 431.677 721.548 426.461 721.323 420.854 721.226 419.55L721.226 314.194 732 314.194ZM712.742 429.884C710.806 432.427 707.71 433.731 703.516 433.763 699.323 433.731 696.226 432.427 694.29 429.884 691.355 426.005 691.839 420.235 691.839 420.202L691.871 419.974 691.871 314.194 715.161 314.194 715.161 419.779 715.161 419.974 715.194 420.202C715.161 420.235 715.645 426.005 712.742 429.884Z" fill="#FFFFFF" fill-rule="evenodd"/><path d="M712 372C712 374.209 710.209 376 708 376 705.791 376 704 374.209 704 372 704 369.791 705.791 368 708 368 710.209 368 712 369.791 712 372Z" fill="#FFFFFF" fill-rule="evenodd"/><path d="M701 362C701 363.657 699.657 365 698 365 696.343 365 695 363.657 695 362 695 360.343 696.343 359 698 359 699.657 359 701 360.343 701 362Z" fill="#FFFFFF" fill-rule="evenodd"/><path d="M706 356.5C706 357.328 705.328 358 704.5 358 703.672 358 703 357.328 703 356.5 703 355.672 703.672 355 704.5 355 705.328 355 706 355.672 706 356.5Z" fill="#FFFFFF" fill-rule="evenodd"/><path d="M765.333 305 618.667 305C610.569 305 604 311.593 604 319.719L604 417.844C604 425.97 610.569 432.562 618.667 432.562L677.333 432.562 672.444 447.281 650.444 447.281C646.381 447.281 643.111 450.562 643.111 454.641 643.111 458.719 646.381 462 650.444 462L733.556 462C737.619 462 740.889 458.719 740.889 454.641 740.889 450.562 737.619 447.281 733.556 447.281L711.556 447.281 706.667 432.562 765.333 432.562C773.431 432.562 780 425.97 780 417.844L780 319.719C780 311.593 773.431 305 765.333 305ZM760.444 412.938 623.556 412.938 623.556 324.625 760.444 324.625 760.444 412.938Z" fill="#3C8DBC" fill-rule="evenodd"/><path d="M706.5 367.297 706.5 371.508C706.5 372.5 705.684 373.312 704.688 373.312L679.312 373.312C678.316 373.312 677.5 372.5 677.5 371.508L677.5 367.297C677.5 366.304 678.316 365.492 679.312 365.492L704.688 365.492C705.684 365.492 706.5 366.304 706.5 367.297ZM704.688 378.125 679.312 378.125C678.316 378.125 677.5 378.937 677.5 379.93L677.5 384.141C677.5 385.133 678.316 385.945 679.312 385.945L704.688 385.945C705.684 385.945 706.5 385.133 706.5 384.141L706.5 379.93C706.5 378.937 705.684 378.125 704.688 378.125ZM721 349.837 721 399.781C721 403.767 717.753 407 713.75 407L670.25 407C666.247 407 663 403.767 663 399.781L663 337.219C663 333.233 666.247 330 670.25 330L701.078 330C702.996 330 704.839 330.767 706.198 332.121L718.87 344.738C720.23 346.077 721 347.927 721 349.837ZM701.667 337.805 701.667 349.25 713.161 349.25 701.667 337.805ZM713.75 399.781 713.75 356.469 698.042 356.469C696.033 356.469 694.417 354.86 694.417 352.859L694.417 337.219 670.25 337.219 670.25 399.781 713.75 399.781Z" fill="#3C8DBC" fill-rule="evenodd"/></g></svg>