<svg width="178" height="158" xmlns="http://www.w3.org/2000/svg" xmlns:xlink="http://www.w3.org/1999/xlink" overflow="hidden"><defs><clipPath id="clip0"><rect x="220" y="305" width="178" height="158"/></clipPath></defs><g clip-path="url(#clip0)" transform="translate(-220 -305)"><path d="M352 332 346.286 332.008 312.044 366.195 297.517 351.627 317.16 332.018 311.366 332.017 294.627 348.729 277.951 332.005 272 332.006 309.993 369.935 309.993 404 314.026 404 314.026 369.911Z" fill="#3C8DBC" fill-rule="evenodd"/><path d="M382.25 305 234.75 305C226.607 305 220 311.593 220 319.719L220 417.844C220 425.97 226.607 432.562 234.75 432.562L293.75 432.562 288.833 447.281 266.708 447.281C262.621 447.281 259.333 450.562 259.333 454.641 259.333 458.719 262.621 462 266.708 462L350.292 462C354.379 462 357.667 458.719 357.667 454.641 357.667 450.562 354.379 447.281 350.292 447.281L328.167 447.281 323.25 432.562 382.25 432.562C390.393 432.562 397 425.97 397 417.844L397 319.719C397 311.593 390.393 305 382.25 305ZM377.333 412.938 239.667 412.938 239.667 324.625 377.333 324.625 377.333 412.938Z" fill="#3C8DBC" fill-rule="evenodd"/></g></svg>